<?xml version="1.0" encoding="utf-8"?>
<!-- Generator: Adobe Illustrator 26.3.1, SVG Export Plug-In . SVG Version: 6.00 Build 0)  -->
<svg version="1.1" width="180" id="Layer_1" xmlns="http://www.w3.org/2000/svg" xmlns:xlink="http://www.w3.org/1999/xlink" x="0px" y="0px"
	 viewBox="0 0 396.63 72.57" style="enable-background:new 0 0 396.63 72.57;" xml:space="preserve">
<style type="text/css">
	.st0{fill:#58595B;}
	.st1{fill:#ED1C29;}
</style>
<g>
	<path class="st0" d="M194.27,55.53v-6.07h-11.16V38.52h8.15v-6.07h-8.15V21.51h11.16v-6.08h-17.2v40.09H194.27L194.27,55.53z
		 M206.29,35.39l-7.86,20.14h6.49l4.67-12.76 M225.73,15.47v40.06h6.04V40.44h3.49c2.62,0,4.85-0.94,6.7-2.81
		c1.84-1.88,2.76-4.14,2.76-6.78v-5.82c0-2.75-0.81-5.01-2.43-6.78c-1.75-1.85-4.09-2.78-7.03-2.78H225.73L225.73,15.47z
		 M238.87,30.98c0,0.96-0.33,1.78-1.01,2.46c-0.67,0.68-1.49,1.02-2.45,1.02h-3.64V21.64h3.64c1.04,0,1.88,0.32,2.51,0.96
		c0.63,0.64,0.94,1.48,0.94,2.53V30.98L238.87,30.98z M266.76,55.53v-6.07H255.6V38.52h8.15v-6.07h-8.15V21.51h11.16v-6.08h-17.2
		v40.09H266.76L266.76,55.53z M270.91,15.47v40.06h6.04V40.44h3.49c0.19,0,0.37,0,0.54,0l3.66,15.09h6.53l-4.47-17.49
		c2.15-1.96,3.23-4.36,3.23-7.19v-5.82c0-2.9-0.69-5.16-2.08-6.78c-1.58-1.85-4.05-2.78-7.42-2.78H270.91L270.91,15.47z
		 M284.05,30.98c0,0.96-0.34,1.78-1.01,2.46c-0.67,0.68-1.49,1.02-2.45,1.02h-3.65V21.64h3.65c2.3,0,3.45,1.16,3.45,3.48V30.98
		L284.05,30.98z M302.4,15.47h-6.04v40.06h6.04V15.47L302.4,15.47z M325.01,55.53v-6.07h-11.16V38.52H322v-6.07h-8.15V21.51h11.16
		v-6.08h-17.2v40.09H325.01L325.01,55.53z M329.16,15.44v40.09h6.04V29.86l8.31,25.67h6.49V15.44h-6.04v26.95l-8.02-26.95H329.16
		L329.16,15.44z M371.66,53.26c1.88-1.86,2.81-4.11,2.81-6.78v-5.59h-6.27v5.53c0,0.96-0.34,1.78-1.02,2.45
		c-0.68,0.67-1.5,1.01-2.46,1.01c-0.96,0-1.77-0.33-2.45-1.01c-0.67-0.67-1.01-1.49-1.01-2.45V24.49c0-0.96,0.34-1.78,1.01-2.46
		c0.67-0.68,1.49-1.02,2.45-1.02c0.96,0,1.78,0.34,2.46,1.02c0.68,0.68,1.02,1.5,1.02,2.46v4.7h6.27v-4.57
		c0-2.64-0.93-4.9-2.78-6.78c-1.85-1.88-4.11-2.81-6.78-2.81c-2.64,0-4.9,0.93-6.78,2.8c-1.88,1.87-2.81,4.13-2.81,6.8v21.87
		c0,2.64,0.93,4.9,2.8,6.76c1.86,1.87,4.13,2.8,6.79,2.8C367.53,56.04,369.78,55.12,371.66,53.26L371.66,53.26z M396.63,55.53v-6.07
		h-11.16V38.52h8.15v-6.07h-8.15V21.51h11.16v-6.08h-17.2v40.09H396.63L396.63,55.53z M213.71,33.33l7-17.86h-6.68l-3.72,10.07"/>
	<path class="st1" d="M6.04,38.59h8.15v-6.07H6.04V21.58H17.2V15.5H0v40.1h6.04V38.59L6.04,38.59z M37.72,55.63h0.45h5.9
		l-6.93-17.52c2.15-1.96,3.23-4.36,3.23-7.19V25.1c0-2.9-0.69-5.16-2.08-6.78c-1.58-1.85-4.05-2.78-7.42-2.78h-9.53V55.6h6.04V40.51
		h3.49c0.19,0,0.37,0,0.54,0l6.26,15.12 M34.5,31.04c0,0.96-0.34,1.78-1.01,2.46c-0.67,0.68-1.49,1.02-2.45,1.02H27.4V21.71h3.65
		c2.3,0,3.45,1.16,3.45,3.49V31.04L34.5,31.04z M60.56,46.39l1.41,9.21h6.35l-6.71-40.06H53.3L46.49,55.6h6.29l1.47-9.21H60.56
		L60.56,46.39z M59.66,40.51h-4.48l2.24-15.79L59.66,40.51L59.66,40.51z M90.67,41.79c-0.23-0.58-0.54-1.2-0.93-1.89
		c-0.81-1.45-1.96-2.92-3.45-4.41c-0.45-0.47-1.38-1.29-2.78-2.46c-1.19-0.98-2.09-1.83-2.68-2.56c-1.58-1.9-2.37-3.76-2.37-5.6
		c0-1.17,0.23-2.15,0.7-2.94c0.58-0.98,1.42-1.47,2.53-1.47c1.04,0,1.84,0.33,2.4,0.99c0.77,0.92,1.24,2.2,1.41,3.84l5.79-1.05
		c-0.15-1.75-0.59-3.29-1.33-4.64c-0.73-1.34-1.7-2.39-2.89-3.13c-1.53-0.96-3.38-1.44-5.53-1.44c-2.24,0-4.11,0.57-5.63,1.7
		c-2.45,1.88-3.68,4.64-3.68,8.29c0,2.03,0.45,3.9,1.34,5.63c0.83,1.54,2.25,3.27,4.25,5.22c2.39,2.26,4.18,3.96,5.37,5.09
		c1.51,1.64,2.27,3.3,2.27,4.96c0,1.15-0.2,2.04-0.61,2.65c-0.79,1.26-1.84,1.91-3.16,1.95c-0.94,0.04-1.77-0.33-2.49-1.12
		c-0.98-1.05-1.6-2.74-1.85-5.08l-5.76,0.42c0.13,2.13,0.57,4.02,1.33,5.68c0.76,1.65,1.78,2.96,3.09,3.92
		c1.56,1.17,3.52,1.76,5.88,1.76c1.28,0,2.4-0.15,3.36-0.45c1.79-0.55,3.18-1.5,4.16-2.85c1.49-1.98,2.22-4.37,2.17-7.16
		C91.55,44.49,91.25,43.21,90.67,41.79L90.67,41.79L90.67,41.79z M113.79,55.6v-6.08h-11.16V38.59h8.15v-6.07h-8.15V21.58h11.16
		V15.5h-17.2v40.1H113.79L113.79,55.6z M117.95,15.54V55.6h6.04V40.51h3.48c0.19,0,0.37,0,0.54,0l3.66,15.09h6.54l-4.48-17.49
		c2.15-1.96,3.23-4.36,3.23-7.19V25.1c0-2.9-0.69-5.16-2.08-6.78c-1.58-1.85-4.05-2.78-7.42-2.78H117.95L117.95,15.54z
		 M131.09,31.04c0,0.96-0.34,1.78-1.01,2.46c-0.67,0.68-1.49,1.02-2.45,1.02h-3.64V21.71h3.64c2.3,0,3.45,1.16,3.45,3.49V31.04
		L131.09,31.04z M160.44,41.79c-0.24-0.58-0.54-1.2-0.93-1.89c-0.81-1.45-1.96-2.92-3.45-4.41c-0.45-0.47-1.38-1.29-2.78-2.46
		c-1.19-0.98-2.09-1.83-2.69-2.56c-1.58-1.9-2.37-3.76-2.37-5.6c0-1.17,0.23-2.15,0.7-2.94c0.58-0.98,1.42-1.47,2.53-1.47
		c1.04,0,1.84,0.33,2.4,0.99c0.77,0.92,1.23,2.2,1.41,3.84l5.79-1.05c-0.15-1.75-0.59-3.29-1.33-4.64c-0.74-1.34-1.7-2.39-2.89-3.13
		c-1.54-0.96-3.38-1.44-5.53-1.44c-2.24,0-4.11,0.57-5.63,1.7c-2.45,1.88-3.68,4.64-3.68,8.29c0,2.03,0.45,3.9,1.34,5.63
		c0.83,1.54,2.25,3.27,4.25,5.22c2.39,2.26,4.18,3.96,5.37,5.09c1.51,1.64,2.27,3.3,2.27,4.96c0,1.15-0.2,2.04-0.61,2.65
		c-0.79,1.26-1.84,1.91-3.16,1.95c-0.94,0.04-1.77-0.33-2.49-1.12c-0.98-1.05-1.6-2.74-1.86-5.08l-5.76,0.42
		c0.13,2.13,0.57,4.02,1.33,5.68c0.76,1.65,1.79,2.96,3.09,3.92c1.56,1.17,3.52,1.76,5.88,1.76c1.28,0,2.4-0.15,3.36-0.45
		c1.79-0.55,3.17-1.5,4.16-2.85c1.49-1.98,2.22-4.37,2.17-7.16C161.31,44.49,161.01,43.21,160.44,41.79L160.44,41.79L160.44,41.79z"
		/>
	<polygon class="st1" points="191.39,0.07 221.52,72.57 227.93,72.5 197.79,0 191.39,0.07 	"/>
</g>
</svg>
